<?xml version="1.0" encoding="utf-8"?>
<!-- Generator: Adobe Illustrator 16.0.4, SVG Export Plug-In . SVG Version: 6.00 Build 0)  -->
<!DOCTYPE svg PUBLIC "-//W3C//DTD SVG 1.1//EN" "http://www.w3.org/Graphics/SVG/1.1/DTD/svg11.dtd">
<svg version="1.1" id="Capa_1" xmlns="http://www.w3.org/2000/svg" xmlns:xlink="http://www.w3.org/1999/xlink" x="0px" y="0px"
	 width="440.748px" height="552.669px" viewBox="200.656 21.305 440.748 552.669"
	 enable-background="new 200.656 21.305 440.748 552.669" xml:space="preserve">
<g>
	<g>
		<g>
			<path fill="#FFFFFF" d="M610.858,273.553c-1.369,0.855-1.797,0.428-1.112-0.855c-11.637-39.189-91.384-69.479-188.159-69.479
				c-99.085,0-180.372,31.83-188.843,72.389c0.085,0.085,0,0.171-0.086,0.085l-22.675,16.856l89.759,222.215l0,0
				c11.551,29.349,61.179,51.425,120.562,51.425c58.271,0,106.957-21.221,119.792-49.628l0.257,0.085l91.384-225.894
				L610.858,273.553z"/>
			<path fill="#8E8E8E" d="M420.474,573.974c-59.04,0-109.438-20.878-125.524-51.425h-0.257l-1.968-4.877l-92.068-227.776
				l25.327-18.91c12.407-43.296,95.405-75.554,195.773-75.554c98.572,0,179.603,30.375,194.833,72.645l24.814,20.193
				l-95.834,236.932l-0.94-0.171C527.003,554.209,477.289,573.974,420.474,573.974z M305.046,506.976L305.046,506.976l1.968,4.963
				c10.439,26.525,59.126,46.548,113.375,46.548c53.563,0,100.967-18.995,112.689-45.093l2.396-5.391h0.086l86.935-214.855
				l-13.947-11.381h-3.337l-2.567-4.021c-0.513-0.77-1.197-2.481-1.026-4.706c-11.552-30.804-80.859-62.035-180.03-62.035
				c-89.844,0-169.248,28.151-180.458,63.233l0.685,1.026l-4.449,8.129h-2.139l-15.659,11.809L305.046,506.976z"/>
		</g>
		<g>
			<path fill="#FF4081" d="M502.702,132.37c1.455-5.989,2.311-12.235,2.311-18.653c0-44.066-36.622-79.747-81.801-79.747
				c-1.455,0-2.823,0.171-4.278,0.171c2.139,6.846,3.337,14.119,3.337,21.734c0,64.602-192.266,53.734-192.266,181.912
				c0,64.346,85.48,116.626,190.896,116.626c105.417,0,190.982-52.28,190.982-116.712
				C611.884,191.154,567.219,151.023,502.702,132.37z"/>
			<path fill="#8E8E8E" d="M420.988,362.114c-109.524,0-198.684-55.789-198.684-124.327c0-80.089,69.394-109.011,125.097-132.284
				c36.023-15.06,67.17-27.98,67.17-49.628c0-6.589-1.027-13.092-2.995-19.338l-3.08-9.584l11.294-0.599
				c1.112-0.086,2.311-0.171,3.423-0.171c49.371,0,89.587,39.274,89.587,87.533c0,4.364-0.342,8.813-1.112,13.263
				c66.827,21.221,107.984,63.318,107.984,110.723C619.671,306.325,530.511,362.114,420.988,362.114z M428.86,41.927
				c0.855,4.62,1.197,9.241,1.197,13.947c0,32.001-35.509,46.804-76.666,64.003c-54.163,22.589-115.514,48.173-115.514,117.909
				c0,59.981,82.143,108.84,183.11,108.84s183.11-48.772,183.11-108.84c0-41.242-40.644-79.661-103.62-97.887l-7.188-2.054
				l1.797-7.273c1.369-5.732,2.14-11.38,2.14-16.771C497.227,75.811,467.022,44.751,428.86,41.927z"/>
		</g>
		<path fill="#8E8E8E" d="M419.789,21.305c0,0,1.027,0.086,2.824,0.257c1.625,0.172,5.646,0.514,9.412,1.198
			c7.872,1.369,19.081,4.535,30.804,11.38c11.722,6.76,23.787,17.541,32.344,31.831c4.278,7.102,7.615,15.06,9.754,23.444
			c2.054,8.386,2.824,17.199,2.225,25.841c-0.171,2.396-0.342,3.937-0.685,6.332c-0.256,2.225-0.685,4.364-1.112,6.418
			c-0.94,4.106-1.968,8.214-3.508,12.15c-2.823,7.872-6.76,15.145-11.295,21.477c-9.155,12.835-20.963,21.905-32.001,27.21
			c-11.124,5.391-21.221,7.188-28.151,7.786c-3.508,0.343-6.246,0.343-8.129,0.257c-1.882-0.085-2.909-0.085-2.909-0.085
			s1.027-0.086,2.823-0.257c1.883-0.172,4.621-0.428,7.958-1.112c6.76-1.198,16.429-4.107,26.354-10.269
			c9.926-6.075,19.937-15.658,27.038-28.065c3.509-6.16,6.332-13.006,8.129-20.107c0.941-3.594,1.54-7.188,1.969-10.867
			c0.171-1.883,0.342-3.68,0.342-5.477c0.086-1.625,0.086-4.106,0-5.646c-0.257-7.359-1.626-14.461-4.021-21.135
			c-2.396-6.675-5.733-12.75-9.755-18.055c-7.786-10.781-18.054-18.14-27.552-22.418s-18.055-5.733-23.958-6.075
			c-3.166-0.257-4.621-0.172-6.76-0.172c-1.883,0.086-2.909,0.086-2.909,0.086c-7.188,0.171-13.092-5.477-13.263-12.664
			c-0.086-7.188,5.562-13.091,12.749-13.263C418.934,21.305,419.362,21.305,419.789,21.305z"/>
		<g>
			<path fill="#8E8E8E" d="M422.614,382.307c0,0,3.679-0.257,10.182-0.599c3.252-0.171,7.188-0.343,11.637-0.941
				c4.45-0.599,9.498-0.855,14.975-1.797c5.476-1.026,11.38-1.626,17.541-3.08c6.16-1.284,12.663-2.652,19.252-4.621
				c6.674-1.625,13.349-4.021,20.193-6.246c3.423-1.112,6.76-2.566,10.183-3.851c3.423-1.283,6.76-2.652,10.097-4.192
				s6.674-2.995,9.926-4.535c3.166-1.711,6.417-3.337,9.583-4.963c3.252-1.54,6.161-3.594,9.155-5.305
				c2.995-1.797,5.99-3.509,8.729-5.477c2.823-1.882,5.562-3.765,8.214-5.647c2.567-1.968,5.049-3.936,7.53-5.818
				c4.877-3.765,9.069-7.872,13.006-11.466c3.679-3.936,7.272-7.188,9.926-10.61c2.737-3.337,5.305-6.075,7.016-8.642
				c3.509-5.049,5.562-7.872,5.562-7.872l12.749,8.898c0,0-2.481,2.995-6.76,8.3c-2.054,2.653-5.049,5.477-8.3,8.984
				c-3.166,3.509-7.273,6.76-11.466,10.696c-4.449,3.594-9.241,7.615-14.632,11.209c-2.738,1.797-5.477,3.68-8.3,5.647
				c-2.909,1.711-5.904,3.508-8.984,5.305c-2.995,1.883-6.246,3.509-9.498,5.134c-3.251,1.626-6.417,3.509-9.84,4.878
				c-3.423,1.454-6.76,2.994-10.183,4.535c-3.423,1.368-7.017,2.652-10.524,4.021s-7.017,2.566-10.61,3.594
				c-3.594,1.112-7.102,2.31-10.609,3.251c-7.103,1.797-14.119,3.765-20.964,4.963c-6.846,1.54-13.52,2.481-19.852,3.423
				c-6.332,1.112-12.321,1.283-17.883,1.968c-5.562,0.599-10.696,0.599-15.146,0.855c-4.535,0.257-8.471,0.171-11.637,0.171
				C426.378,382.307,422.614,382.307,422.614,382.307z"/>
		</g>
	</g>
</g>
</svg>
